<?xml version="1.0" encoding="UTF-8"?>
<svg width="20px" height="20px" viewBox="0 0 20 20" version="1.1" xmlns="http://www.w3.org/2000/svg" xmlns:xlink="http://www.w3.org/1999/xlink">
    <title>cancel</title>
    <g id="HBO-Web-HF-Final" stroke="none" stroke-width="1" fill="none" fill-rule="evenodd">
        <g id="06.3-Special-Instructions" transform="translate(-931.000000, -109.000000)" fill="#878787" fill-rule="nonzero">
            <g id="cancel" transform="translate(931.000000, 109.000000)">
                <path d="M11.064645,9.90855667 L19.5550104,1.41819122 C19.8827025,1.10171224 19.8917889,0.579531592 19.57531,0.251839551 C19.258831,-0.0758524897 18.7366503,-0.0849389357 18.4089583,0.231540044 C18.4020951,0.23816155 18.3953286,0.244928052 18.3886588,0.251839551 L9.898245,8.742205 L1.40787955,0.251791219 C1.08018751,-0.0646877609 0.558006863,-0.0556013149 0.241527884,0.272090726 C-0.0672179507,0.591759628 -0.0672179507,1.09852232 0.241527884,1.41819122 L8.73189333,9.90855667 L0.241527884,18.3989221 C-0.0805092945,18.7210076 -0.0805092945,19.2431883 0.241527884,19.5652738 C0.563613394,19.8872626 1.08579404,19.8872626 1.40787955,19.5652738 L9.898245,11.0749083 L18.3886104,19.5652738 C18.7163025,19.8817528 19.2384831,19.8726663 19.5549621,19.5449743 C19.8636596,19.2253054 19.8636596,18.7185427 19.5549621,18.3989221 L11.064645,9.90855667 Z" id="Path"></path>
            </g>
        </g>
    </g>
</svg>