<?xml version="1.0" encoding="UTF-8"?>
<svg width="27px" height="25px" viewBox="0 0 27 25" version="1.1" xmlns="http://www.w3.org/2000/svg" xmlns:xlink="http://www.w3.org/1999/xlink">
    <title>delete</title>
    <g id="HBO-Web-HF-Final" stroke="none" stroke-width="1" fill="none" fill-rule="evenodd">
        <g id="06-Recepients-Added" transform="translate(-1177.000000, -680.000000)">
            <g id="delete" transform="translate(1177.000000, 680.000000)">
                <rect id="Rectangle" fill="#E6FBFF" x="0" y="0" width="26.7241379" height="25" rx="2"></rect>
                <g transform="translate(7.000000, 6.000000)" fill="#00A2BC" fill-rule="nonzero">
                    <path d="M7.89090909,10.9454545 C8.17202909,10.9454545 8.4,10.7174836 8.4,10.4363636 L8.4,5.34545455 C8.4,5.06433455 8.17202909,4.83636364 7.89090909,4.83636364 C7.60978909,4.83636364 7.38181818,5.06433455 7.38181818,5.34545455 L7.38181818,10.4363636 C7.38181818,10.7174836 7.60978909,10.9454545 7.89090909,10.9454545 Z" id="Path"></path>
                    <path d="M4.32727273,10.9454545 C4.60839273,10.9454545 4.83636364,10.7174836 4.83636364,10.4363636 L4.83636364,5.34545455 C4.83636364,5.06433455 4.60839273,4.83636364 4.32727273,4.83636364 C4.04615273,4.83636364 3.81818182,5.06433455 3.81818182,5.34545455 L3.81818182,10.4363636 C3.81818182,10.7174836 4.04615273,10.9454545 4.32727273,10.9454545 Z" id="Path"></path>
                    <path d="M8.14545455,1.01818182 C8.42657455,1.01818182 8.65454545,0.790210909 8.65454545,0.509090909 C8.65454545,0.227970909 8.42657455,0 8.14545455,0 L4.07272727,0 C3.79160727,0 3.56363636,0.227970909 3.56363636,0.509090909 C3.56363636,0.790210909 3.79160727,1.01818182 4.07272727,1.01818182 L8.14545455,1.01818182 Z" id="Path"></path>
                    <path d="M0.509090909,1.52727273 C0.227970909,1.52727273 0,1.75524364 0,2.03636364 C0,2.31748364 0.227970909,2.54545455 0.509090909,2.54545455 L1.01818182,2.54545455 L1.01818182,11.9127273 C1.01818182,13.0632218 1.95490909,14 3.10545455,14 L9.11272727,14 C10.2632218,14 11.2,13.0632727 11.2,11.9127273 L11.2,2.54545455 L11.7090909,2.54545455 C11.9902109,2.54545455 12.2181818,2.31748364 12.2181818,2.03636364 C12.2181818,1.75524364 11.9902109,1.52727273 11.7090909,1.52727273 L10.6909091,1.52727273 L1.52727273,1.52727273 L0.509090909,1.52727273 Z M10.1818182,2.54545455 L10.1818182,11.9127273 C10.1818182,12.5032727 9.70327273,12.9818182 9.11272727,12.9818182 L3.10545455,12.9818182 C2.51490909,12.9818182 2.03636364,12.5032727 2.03636364,11.9127273 L2.03636364,2.54545455 L10.1818182,2.54545455 Z" id="Shape"></path>
                </g>
            </g>
        </g>
    </g>
</svg>