<?xml version="1.0" encoding="UTF-8"?>
<svg width="10px" height="14px" viewBox="0 0 10 14" version="1.1" xmlns="http://www.w3.org/2000/svg" xmlns:xlink="http://www.w3.org/1999/xlink">
    <title>report</title>
    <g id="HBO-Web-HF-Final" stroke="none" stroke-width="1" fill="none" fill-rule="evenodd">
        <g id="08-Orders" transform="translate(-1149.000000, -245.000000)" fill="#FF6767" fill-rule="nonzero" stroke="#FF6767" stroke-width="0.3">
            <g id="report" transform="translate(1150.000000, 246.000000)">
                <path d="M8.06371875,0.484921875 C7.51989844,0.158625 6.940125,0 6.29128125,0 C5.51498438,0 4.75296094,0.228585938 4.01603906,0.449648438 C3.29613281,0.665601563 2.61614063,0.869578125 1.94308594,0.869625 C1.94299219,0.869625 1.94292188,0.869625 1.94282813,0.869625 C1.49285156,0.869625 1.08541406,0.774375 0.703125,0.579421875 L0.703125,0.3515625 C0.703125,0.15740625 0.54571875,0 0.3515625,0 C0.15740625,0 0,0.15740625 0,0.3515625 L0,0.786351563 L0,5.56516406 L0,11.6484375 C0,11.8425938 0.15740625,12 0.3515625,12 C0.54571875,12 0.703125,11.8425938 0.703125,11.6484375 L0.703125,6.12780469 C1.09141406,6.27780469 1.50121875,6.3515625 1.94310938,6.3515625 C2.71938281,6.3515625 3.48133594,6.12297656 4.21821094,5.90191406 C4.93816406,5.6859375 5.61820313,5.4819375 6.29128125,5.4819375 C6.8090625,5.4819375 7.27047656,5.60777344 7.7019375,5.86666406 C7.81052344,5.93182031 7.94578125,5.93355469 8.05603125,5.87114063 C8.16625781,5.80872656 8.23436719,5.69186719 8.23436719,5.56521094 L8.23436719,0.786375 C8.23436719,0.662882813 8.16960938,0.5484375 8.06371875,0.484921875 Z M4.01620312,5.22846094 C3.29622656,5.4444375 2.6161875,5.6484375 1.94313281,5.6484375 C1.49299219,5.6484375 1.08546094,5.55332813 0.703148437,5.358375 L0.703148437,1.34920313 C1.09136719,1.49917969 1.50110156,1.57277344 1.94285156,1.57275 C1.94292187,1.57275 1.94308594,1.57275 1.94317969,1.57275 C2.71938281,1.57270313 3.48128906,1.34414063 4.21809375,1.12310156 C4.93807031,0.907125 5.61817969,0.703125 6.29128125,0.703125 C6.74142188,0.703125 7.14895312,0.798234375 7.53124219,0.993164063 L7.53124219,5.00238281 C7.14297656,4.85238281 6.73314844,4.7788125 6.29128125,4.7788125 C5.51503125,4.7788125 4.75305469,5.00739844 4.01620312,5.22846094 Z" id="Shape"></path>
            </g>
        </g>
    </g>
</svg>