<?xml version="1.0" encoding="UTF-8"?>
<svg width="85px" height="85px" viewBox="0 0 85 85" version="1.1" xmlns="http://www.w3.org/2000/svg" xmlns:xlink="http://www.w3.org/1999/xlink">
    <title>floating_button</title>
    <defs>
        <circle id="path-1" cx="33.5" cy="33.5" r="33.5"></circle>
        <filter x="-21.6%" y="-18.7%" width="143.3%" height="143.3%" filterUnits="objectBoundingBox" id="filter-2">
            <feOffset dx="0" dy="2" in="SourceAlpha" result="shadowOffsetOuter1"></feOffset>
            <feGaussianBlur stdDeviation="4.5" in="shadowOffsetOuter1" result="shadowBlurOuter1"></feGaussianBlur>
            <feColorMatrix values="0 0 0 0 0   0 0 0 0 0   0 0 0 0 0  0 0 0 0.15 0" type="matrix" in="shadowBlurOuter1"></feColorMatrix>
        </filter>
    </defs>
    <g id="HBO-Web-HF-Final" stroke="none" stroke-width="1" fill="none" fill-rule="evenodd">
        <g id="01-Home" transform="translate(-1174.000000, -762.000000)">
            <g id="floating_button" transform="translate(1183.000000, 769.000000)">
                <g id="Oval">
                    <use fill="black" fill-opacity="1" filter="url(#filter-2)" xlink:href="#path-1"></use>
                    <use fill="#00E493" fill-rule="evenodd" xlink:href="#path-1"></use>
                </g>
                <g id="Group-9" transform="translate(14.250000, 15.000000)">
                    <g id="box">
                        <polygon id="Path-13" fill="#FFFFFF" points="3.88350711 5.07216869 11.1733127 1.47809842 25.2800964 8.79445385 25.2800964 18.5 18.2475065 22.1176964 18.2475065 12.499566"></polygon>
                        <path d="M28.6985594,7.42040099 C28.6985594,7.38868988 28.6985594,7.38868988 28.6985594,7.35697876 C28.6668483,7.29355653 28.6668483,7.2301343 28.6351372,7.16671207 L28.6351372,7.13500095 C28.603426,7.07157872 28.5400038,7.00815649 28.5082927,6.97644538 L28.4765816,6.94473426 C28.4448705,6.91302315 28.3814482,6.88131203 28.3497371,6.84960091 L28.318026,6.8178898 L28.2863149,6.8178898 L28.2546038,6.78617868 L14.7773798,0.095133346 C14.5236908,-0.0317111153 14.2065797,-0.0317111153 13.9211796,0.095133346 L9.38649014,2.34662254 L22.9271364,9.2913568 L22.9588475,9.32306791 C22.9905586,9.32306791 22.9905586,9.35477903 23.0222697,9.35477903 C23.0539809,9.38649014 23.0539809,9.41820126 23.085692,9.44991237 C23.085692,9.48162349 23.085692,9.48162349 23.085692,9.5133346 L23.085692,9.54504572 L23.085692,16.9020245 C23.085692,17.0288689 23.0222697,17.1240023 22.9271364,17.1874245 L20.1999805,18.6144247 C20.0414249,18.7095581 19.8511582,18.6461358 19.7560249,18.4875802 C19.7243137,18.4558691 19.7243137,18.3924469 19.7243137,18.3290247 L19.7243137,11.1306015 L6.02511192,4.05902276 L5.9934008,4.02731165 L0.507377846,6.75446757 L0.47566673,6.78617868 L0.443955615,6.78617868 L0.4122445,6.8178898 C0.380533384,6.84960091 0.317111153,6.88131203 0.285400038,6.91302315 L0.253688923,6.94473426 C0.190266692,7.00815649 0.158555577,7.07157872 0.095133346,7.13500095 L0.095133346,7.16671207 C0.0634222307,7.2301343 0.0317111153,7.29355653 0.0317111153,7.35697876 C0.0317111153,7.38868988 0.0317111153,7.38868988 0.0317111153,7.42040099 C0.0317111153,7.48382322 0,7.51553434 0,7.57895657 L0,7.61066768 L0,22.3880474 C0,22.7368697 0.190266692,23.085692 0.539088961,23.2442475 L13.8894685,29.9035818 C14.0797352,29.9987151 14.301713,30.0304262 14.5236908,29.967004 L14.5871131,29.9352929 C14.6505353,29.9352929 14.6822464,29.9035818 14.7456686,29.8718707 L28.1911815,23.2125364 C28.5082927,23.0539809 28.7302705,22.7368697 28.7302705,22.3563363 L28.7302705,7.61066768 L28.7302705,7.57895657 C28.6985594,7.51553434 28.6985594,7.48382322 28.6985594,7.42040099 Z" id="Path" fill="#EBBD91" fill-rule="nonzero"></path>
                    </g>
                    <g id="add" transform="translate(19.524609, 17.774609)" fill-rule="nonzero">
                        <g id="Group" fill="#FFFFFF">
                            <circle id="Oval" cx="9.22539062" cy="9.22539062" r="9.22539062"></circle>
                        </g>
                        <g id="Group" transform="translate(4.577813, 4.508086)" fill="#00E493">
                            <path d="M4.64757813,9.29515625 C4.22,9.29515625 3.87296875,8.94890625 3.87296875,8.52054688 L3.87296875,0.774609375 C3.87296875,0.34703125 4.22,0 4.64757813,0 C5.07515625,0 5.4221875,0.34703125 5.4221875,0.774609375 L5.4221875,8.52054688 C5.4221875,8.94890625 5.07515625,9.29515625 4.64757813,9.29515625 Z" id="Path"></path>
                            <path d="M8.52054688,5.4221875 L0.774609375,5.4221875 C0.34703125,5.4221875 0,5.07515625 0,4.64757813 C0,4.22 0.34703125,3.87296875 0.774609375,3.87296875 L8.52054688,3.87296875 C8.94890625,3.87296875 9.29515625,4.22 9.29515625,4.64757813 C9.29515625,5.07515625 8.94890625,5.4221875 8.52054688,5.4221875 Z" id="Path"></path>
                        </g>
                    </g>
                </g>
            </g>
        </g>
    </g>
</svg>